<svg width="24" height="24" viewBox="0 0 24 24" xmlns="http://www.w3.org/2000/svg">
    <g fill="none" fill-rule="evenodd">
        <path d="M0 0h24v24H0z"/>
        <path d="M18.75 9.375V6.75h-2.625V5h2.625c.481 0 .893.171 1.236.514.343.343.514.755.514 1.236v2.625h-1.75zM3 9.375V6.75c0-.481.171-.893.514-1.236A1.685 1.685 0 0 1 4.75 5h2.625v1.75H4.75v2.625H3zM16.125 19v-1.75h2.625v-2.625h1.75v2.625c0 .481-.171.893-.514 1.236A1.685 1.685 0 0 1 18.75 19h-2.625zM4.75 19c-.481 0-.893-.171-1.236-.514A1.685 1.685 0 0 1 3 17.25v-2.625h1.75v2.625h2.625V19H4.75zm1.75-3.5v-7H17v7H6.5zm1.75-1.75h7v-3.5h-7v3.5zm.04 0v-3.5 3.5z" fill="#177991" fill-rule="nonzero"/>
    </g>
</svg>
