<?xml version="1.0" encoding="UTF-8"?>
<svg width="24px" height="24px" viewBox="0 0 24 24" version="1.1" xmlns="http://www.w3.org/2000/svg" xmlns:xlink="http://www.w3.org/1999/xlink">
    <title>7A5EE42E-DAC5-4ED3-8280-0C0B118B96CA</title>
    <g id="Page-1" stroke="none" stroke-width="1" fill="none" fill-rule="evenodd">
        <g id="Toolbars-&amp;-Buttons" transform="translate(-1545, -799)">
            <g id="Recenter-Screens" transform="translate(783, 336)">
                <g id="Markov-Chain-Plugin" transform="translate(744, 68)">
                    <g id="Plugin-Interior" transform="translate(10, 35)">
                        <g id="Back-to-Main-button" transform="translate(4, 356)">
                            <g id="home" transform="translate(4, 4)">
                                <rect id="Rectangle" x="0" y="0" width="24" height="24"></rect>
                                <path d="M4,18.5 L4,9.5 C4,9.18333333 4.07083333,8.88333333 4.2125,8.6 C4.35416667,8.31666667 4.55,8.08333333 4.8,7.9 L10.8,3.4 C11.15,3.13333333 11.55,3 12,3 C12.45,3 12.85,3.13333333 13.2,3.4 L19.2,7.9 C19.45,8.08333333 19.6458333,8.31666667 19.7875,8.6 C19.9291667,8.88333333 20,9.18333333 20,9.5 L20,18.5 C20,19.05 19.8041667,19.5208333 19.4125,19.9125 C19.0208333,20.3041667 18.55,20.5 18,20.5 L15,20.5 C14.7166667,20.5 14.4791667,20.4041667 14.2875,20.2125 C14.0958333,20.0208333 14,19.7833333 14,19.5 L14,14.5 C14,14.2166667 13.9041667,13.9791667 13.7125,13.7875 C13.5208333,13.5958333 13.2833333,13.5 13,13.5 L11,13.5 C10.7166667,13.5 10.4791667,13.5958333 10.2875,13.7875 C10.0958333,13.9791667 10,14.2166667 10,14.5 L10,19.5 C10,19.7833333 9.90416667,20.0208333 9.7125,20.2125 C9.52083333,20.4041667 9.28333333,20.5 9,20.5 L6,20.5 C5.45,20.5 4.97916667,20.3041667 4.5875,19.9125 C4.19583333,19.5208333 4,19.05 4,18.5 Z" id="Path" fill="#FFFFFF" fill-rule="nonzero"></path>
                            </g>
                        </g>
                    </g>
                </g>
            </g>
        </g>
    </g>
</svg>