<svg width="24" height="24" viewBox="0 0 24 24" xmlns="http://www.w3.org/2000/svg">
    <g fill="none" fill-rule="evenodd">
        <path d="M0 0h24v24H0z"/>
        <path d="M5.778 20c-.49 0-.908-.174-1.256-.522A1.712 1.712 0 0 1 4 18.222v-3.555h1.778v3.555h3.555V20H5.778zm8.889 0v-1.778h3.555v-3.555H20v3.555c0 .49-.174.908-.522 1.256a1.712 1.712 0 0 1-1.256.522h-3.555zM4 9.333V5.778c0-.49.174-.908.522-1.256A1.712 1.712 0 0 1 5.778 4h3.555v1.778H5.778v3.555H4zm14.222 0V5.778h-3.555V4h3.555c.49 0 .908.174 1.256.522.348.348.522.767.522 1.256v3.555h-1.778zM12 16.444c-1.23 0-2.278-.433-3.144-1.3-.867-.866-1.3-1.914-1.3-3.144 0-1.23.433-2.278 1.3-3.144.866-.867 1.914-1.3 3.144-1.3 1.23 0 2.278.433 3.144 1.3.867.866 1.3 1.914 1.3 3.144 0 1.23-.433 2.278-1.3 3.144-.866.867-1.914 1.3-3.144 1.3zm0-1.777c.74 0 1.37-.26 1.889-.778A2.572 2.572 0 0 0 14.667 12c0-.74-.26-1.37-.778-1.889A2.572 2.572 0 0 0 12 9.333c-.74 0-1.37.26-1.889.778A2.572 2.572 0 0 0 9.333 12c0 .74.26 1.37.778 1.889a2.572 2.572 0 0 0 1.889.778z" fill="#177991" fill-rule="nonzero"/>
    </g>
</svg>
