<?xml version="1.0" encoding="UTF-8"?>
<svg width="24px" height="24px" viewBox="0 0 24 24" version="1.1" xmlns="http://www.w3.org/2000/svg" xmlns:xlink="http://www.w3.org/1999/xlink">
    <title>01E0CD2E-DB5B-4479-A8A9-A455633C30D9</title>
    <g id="Page-1" stroke="none" stroke-width="1" fill="none" fill-rule="evenodd">
        <g id="Toolbars-&amp;-Buttons" transform="translate(-1545, -757)">
            <g id="Recenter-Screens" transform="translate(783, 336)">
                <g id="Markov-Chain-Plugin" transform="translate(744, 68)">
                    <g id="Plugin-Interior" transform="translate(10, 35)">
                        <g id="Reset-button" transform="translate(4, 314)">
                            <g id="reset" transform="translate(4, 4)">
                                <rect id="Rectangle" x="0" y="0" width="24" height="24"></rect>
                                <path d="M12,19 C10.0458333,19 8.390625,18.321875 7.034375,16.965625 C5.678125,15.609375 5,13.9541667 5,12 C5,10.0458333 5.678125,8.390625 7.034375,7.034375 C8.390625,5.678125 10.0458333,5 12,5 C13.00625,5 13.96875,5.2078125 14.8875,5.6234375 C15.80625,6.0390625 16.59375,6.63333333 17.25,7.40625 L17.25,5 L19,5 L19,11.125 L12.875,11.125 L12.875,9.375 L16.55,9.375 C16.0833333,8.55833333 15.4453125,7.91666667 14.6359375,7.45 C13.8265625,6.98333333 12.9479167,6.75 12,6.75 C10.5416667,6.75 9.30208333,7.26041667 8.28125,8.28125 C7.26041667,9.30208333 6.75,10.5416667 6.75,12 C6.75,13.4583333 7.26041667,14.6979167 8.28125,15.71875 C9.30208333,16.7395833 10.5416667,17.25 12,17.25 C13.1229167,17.25 14.1364583,16.9291667 15.040625,16.2875 C15.9447917,15.6458333 16.5791667,14.8 16.94375,13.75 L18.78125,13.75 C18.3729167,15.2958333 17.5416667,16.5572917 16.2875,17.534375 C15.0333333,18.5114583 13.6041667,19 12,19 Z" id="Path" fill="#FFFFFF" fill-rule="nonzero"></path>
                            </g>
                        </g>
                    </g>
                </g>
            </g>
        </g>
    </g>
</svg>