<?xml version="1.0" encoding="UTF-8"?>
<svg width="24px" height="24px" viewBox="0 0 24 24" version="1.1" xmlns="http://www.w3.org/2000/svg" xmlns:xlink="http://www.w3.org/1999/xlink">
    <title>04F55683-D1CF-4755-827A-53A232744239</title>
    <g id="Page-1" stroke="none" stroke-width="1" fill="none" fill-rule="evenodd">
        <g id="Toolbars-&amp;-Buttons" transform="translate(-1545, -1040)">
            <g id="Fit-View-Screens" transform="translate(783, 929)">
                <g id="Markov-Chain-Plugin" transform="translate(744, 68)">
                    <g id="Plugin-Interior" transform="translate(10, 35)">
                        <g id="Select-button" transform="translate(4, 4)">
                            <g id="select" transform="translate(4, 4)">
                                <rect id="Rectangle" x="0" y="0" width="24" height="24"></rect>
                                <path d="M14.6655874,19.3622034 C14.3444426,19.5157944 14.0232978,19.5332479 13.702153,19.414564 C13.3810081,19.29588 13.1436402,19.0759656 12.9900492,18.7548208 L10.4767418,13.3512099 L8.52892864,16.0739596 C8.29156073,16.4090672 7.97739731,16.5137884 7.58643838,16.388123 C7.19547946,16.2624576 7,15.9971641 7,15.5922423 L7,4.84785338 C7,4.49878291 7.15708171,4.24745218 7.47124513,4.09386117 C7.78540855,3.94027016 8.08211845,3.97517721 8.36137482,4.19858231 L16.8228429,10.8588468 C17.1439878,11.0962147 17.2382368,11.4033967 17.10559,11.7803928 C16.9729432,12.1573889 16.704159,12.345887 16.2992372,12.345887 L12.7806069,12.345887 L15.2729701,17.6866651 C15.4265611,18.00781 15.4440146,18.3289548 15.3253306,18.6500996 C15.2066467,18.9712445 14.9867323,19.2086124 14.6655874,19.3622034 Z" id="Path" fill="#177991" fill-rule="nonzero"></path>
                            </g>
                        </g>
                    </g>
                </g>
            </g>
        </g>
    </g>
</svg>