<svg width="24" height="24" viewBox="0 0 24 24" xmlns="http://www.w3.org/2000/svg">
    <g fill="none" fill-rule="evenodd">
        <path d="M0 0h24v24H0z"/>
        <path d="M12 1C5.925 1 1 5.925 1 12s4.925 11 11 11 11-4.925 11-11S18.075 1 12 1z" fill="#177991"/>
        <path d="m19.759 12.276-6.601 5.79a.366.366 0 0 1-.608-.275V6.21c0-.316.371-.484.608-.276l6.6 5.79a.367.367 0 0 1 0 .552zM10.35 17.5a.367.367 0 0 1-.367.367h-3.3a.367.367 0 0 1-.366-.367v-11c0-.202.164-.367.366-.367h3.3c.203 0 .367.165.367.367v11z" fill="#FFF"/>
    </g>
</svg>
